<svg xmlns="http://www.w3.org/2000/svg" height="20" width="20"><path d="M5.25 18.042q-.646 0-1.094-.448-.448-.448-.448-1.094 0-.646.448-1.094.448-.448 1.094-.448.646 0 1.094.459.448.458.448 1.104 0 .625-.448 1.073-.448.448-1.094.448Zm9.25 0q-.646 0-1.094-.448-.448-.448-.448-1.094 0-.646.448-1.094.448-.448 1.094-.448.646 0 1.094.459.448.458.448 1.104 0 .625-.448 1.073-.448.448-1.094.448ZM5.083 5.25l1.75 4.042h6.25q.063 0 .125-.032.063-.031.084-.093l1.541-3.688q.042-.083 0-.156-.041-.073-.125-.073Zm-.708-1.625h12.271q.312 0 .458.24.146.239.021.51l-2.458 5.583q-.167.417-.563.688-.396.271-.875.271H6.438l-.667 1.104q-.063.104-.011.208.052.104.178.104h10.145v1.625H5.5q-.958 0-1.375-.791-.417-.792.042-1.563l1.062-1.896L2.458 3.25H.625V1.625h2.896Zm2.458 5.667h6.396Z"/></svg>